simulation
nRows=62
nColumns=15
endheader
time  TH_x TH_y TH_z SC_y  SC_z  SC_x  AC_y  AC_z  AC_x  GH_y  GH_z  GH_yy  EL_x  PS_y
0.000000  0.000000  0.000000  0.000000  -33.094777  -5.189347  -2.654843  45.912545  1.959320  0.368607  26.290411  10.995736  0.758237  4.984351  91.696557
0.031313  0.000000  0.000000  0.000000  -33.093266  -5.238409  -2.732092  45.987598  1.927092  0.422505  25.169243  11.013043  1.153879  5.221226  92.255255
0.062626  0.000000  0.000000  0.000000  -33.108606  -5.216186  -2.784727  45.993559  1.920978  0.428256  24.844618  11.021760  0.965875  5.481454  92.673743
0.093939  0.000000  0.000000  0.000000  -33.140437  -5.125958  -2.806692  45.936680  1.932580  0.390003  25.109110  11.015560  0.367865  5.788325  92.984651
0.125253  0.000000  0.000000  0.000000  -33.188398  -4.971007  -2.796387  45.823099  1.956735  0.314893  25.755295  10.988119  -0.466510  6.165130  93.220607
0.156566  0.000000  0.000000  0.000000  -33.252126  -4.754614  -2.745802  45.659104  1.983733  0.205520  26.575750  10.933112  -1.363608  6.635159  93.414241
0.187879  0.000000  0.000000  0.000000  -33.331263  -4.480060  -2.659525  45.450678  2.012931  0.073198  27.363049  10.844212  -2.149789  7.221703  93.598183
0.219192  0.000000  0.000000  0.000000  -33.425445  -4.150626  -2.528635  45.204131  2.034069  -0.080253  27.909769  10.715094  -2.651412  7.948051  93.805061
0.250505  0.000000  0.000000  0.000000  -33.534312  -3.769593  -2.350647  44.925605  2.041544  -0.248568  28.008484  10.539434  -2.694836  8.837495  94.067505
0.281818  0.000000  0.000000  0.000000  -33.657503  -3.340243  -2.123907  44.621204  2.030372  -0.424904  27.451772  10.310905  -2.106419  9.913325  94.418144
0.313131  0.000000  0.000000  0.000000  -33.794657  -2.865856  -1.845092  44.297037  1.994416  -0.603598  26.032206  10.023182  -0.712521  11.198830  94.889608
0.344444  0.000000  0.000000  0.000000  -33.945546  -2.349963  -1.507742  43.959405  1.925262  -0.781605  23.553779  9.672178  1.651480  12.715231  95.512144
0.375758  0.000000  0.000000  0.000000  -34.112105  -1.800155  -1.121847  43.616801  1.823899  -0.950140  20.006370  9.290254  5.003326  14.450026  96.277224
0.407071  0.000000  0.000000  0.000000  -34.298033  -1.227325  -0.697611  43.279835  1.689684  -1.105059  15.531096  8.939425  9.241259  16.363279  97.144771
0.438384  0.000000  0.000000  0.000000  -34.507077  -0.642463  -0.246451  42.959106  1.522616  -1.241264  10.273466  8.682567  14.260055  18.414255  98.073792
0.469697  0.000000  0.000000  0.000000  -34.742985  -0.056558  0.221867  42.665190  1.321395  -1.354627  4.378985  8.582556  19.954488  20.562221  99.023294
0.501010  0.000000  0.000000  0.000000  -35.009421  0.519515  0.694295  42.408195  1.086975  -1.438707  -2.004648  8.701080  26.216890  22.766643  99.952585
0.532323  0.000000  0.000000  0.000000  -35.306059  1.080306  1.151300  42.181099  0.835302  -1.498032  -8.626295  9.043732  32.824299  24.996365  100.835219
0.563636  0.000000  0.000000  0.000000  -35.626938  1.628026  1.577330  41.953159  0.595042  -1.562816  -15.088766  9.536906  39.390965  27.233474  101.664855
0.594949  0.000000  0.000000  0.000000  -35.965673  2.165464  1.946066  41.692183  0.403523  -1.657396  -20.983838  10.101011  45.518838  29.461057  102.436677
0.626263  0.000000  0.000000  0.000000  -36.315877  2.695409  2.234848  41.366419  0.295771  -1.809100  -25.903290  10.656457  50.809873  31.662201  103.145865
0.657576  0.000000  0.000000  0.000000  -36.671173  3.220649  2.414981  40.944262  0.310680  -2.040728  -29.439389  11.123722  54.866500  33.820018  103.787602
0.688889  0.000000  0.000000  0.000000  -37.028055  3.743717  2.475955  40.408281  0.468654  -2.366776  -31.375482  11.450296  57.477795  35.927371  104.358463
0.720202  0.000000  0.000000  0.000000  -37.390250  4.266505  2.435734  39.776744  0.755720  -2.768142  -31.975170  11.651552  58.901947  38.001633  104.858505
0.751515  0.000000  0.000000  0.000000  -37.762596  4.790804  2.323615  39.073190  1.148042  -3.225639  -31.576308  11.753363  59.469676  40.063966  105.288327
0.782828  0.000000  0.000000  0.000000  -38.149936  5.318407  2.169768  38.321173  1.621547  -3.720864  -30.516753  11.781597  59.511705  42.135530  105.648528
0.814141  0.000000  0.000000  0.000000  -38.557109  5.851105  1.999132  37.544412  2.155958  -4.231573  -29.134362  11.762125  59.358754  44.237488  105.939706
0.845455  0.000000  0.000000  0.000000  -38.987636  6.389513  1.844227  36.765830  2.726090  -4.746474  -27.717725  11.719707  59.288953  46.386734  106.162343
0.876768  0.000000  0.000000  0.000000  -39.438839  6.928725  1.702592  36.000781  3.324086  -5.248316  -26.324599  11.673887  59.334021  48.580171  106.316372
0.908081  0.000000  0.000000  0.000000  -39.906229  7.462221  1.581094  35.263062  3.935276  -5.733612  -24.945197  11.642687  59.453572  50.808852  106.401567
0.939394  0.000000  0.000000  0.000000  -40.385315  7.983479  1.482107  34.566459  4.547793  -6.195319  -23.569720  11.644127  59.607210  53.063829  106.417702
0.970707  0.000000  0.000000  0.000000  -40.871608  8.485979  1.402546  33.924460  5.152881  -6.621866  -22.188373  11.696228  59.754538  55.336154  106.364550
1.002020  0.000000  0.000000  0.000000  -41.360017  8.964260  1.352071  33.349427  5.735128  -7.012421  -20.792616  11.814259  59.858670  57.615943  106.242571
1.033333  0.000000  0.000000  0.000000  -41.839991  9.422514  1.332350  32.834237  6.288114  -7.360946  -19.385382  11.988463  59.914635  59.884800  106.058464
1.064646  0.000000  0.000000  0.000000  -42.298064  9.870083  1.367661  32.363951  6.795689  -7.681489  -17.975720  12.195724  59.934502  62.119786  105.822262
1.095960  0.000000  0.000000  0.000000  -42.720742  10.316357  1.466402  31.922603  7.250762  -7.975151  -16.572737  12.412801  59.930497  64.297916  105.544028
1.127273  0.000000  0.000000  0.000000  -43.094531  10.770726  1.631794  31.493814  7.649169  -8.238849  -15.185542  12.616452  59.914849  66.396209  105.233824
1.158586  0.000000  0.000000  0.000000  -43.406687  11.241909  1.881835  31.063995  7.979501  -8.482917  -13.823538  12.784197  59.899455  68.392198  104.902152
1.189899  0.000000  0.000000  0.000000  -43.659709  11.724893  2.208375  30.637782  8.248002  -8.703977  -12.502136  12.909060  59.889532  70.273948  104.568425
1.221212  0.000000  0.000000  0.000000  -43.870337  12.201854  2.593579  30.238072  8.468872  -8.897795  -11.242362  12.998546  59.884050  72.039359  104.260383
1.252525  0.000000  0.000000  0.000000  -44.055851  12.654472  3.025524  29.888871  8.652594  -9.064881  -10.065455  13.060713  59.881744  73.686707  104.006083
1.283838  0.000000  0.000000  0.000000  -44.233534  13.064431  3.487388  29.613273  8.811176  -9.200772  -8.992652  13.103618  59.881347  75.214267  103.833583
1.315152  0.000000  0.000000  0.000000  -44.420534  13.413566  3.961915  29.433847  8.955836  -9.300046  -8.045057  13.135285  59.881598  76.620311  103.770717
1.346465  0.000000  0.000000  0.000000  -44.624825  13.694177  4.429742  29.356899  9.096061  -9.359090  -7.234400  13.161406  59.881576  77.902912  103.830066
1.377778  0.000000  0.000000  0.000000  -44.839471  13.915567  4.886950  29.365173  9.230524  -9.394668  -6.557188  13.183886  59.880915  79.059817  103.999435
1.409091  0.000000  0.000000  0.000000  -45.056173  14.088593  5.313377  29.436814  9.366038  -9.410149  -6.008531  13.204282  59.879299  80.088744  104.264355
1.440404  0.000000  0.000000  0.000000  -45.266632  14.224115  5.694271  29.550721  9.507279  -9.413984  -5.583542  13.224152  59.876414  80.987410  104.610362
1.471717  0.000000  0.000000  0.000000  -45.462549  14.332990  6.019569  29.686497  9.657106  -9.419023  -5.277332  13.245053  59.871942  81.753528  105.022982
1.503030  0.000000  0.000000  0.000000  -45.636243  14.423138  6.273363  29.826012  9.818620  -9.425968  -5.083967  13.268358  59.865911  82.381322  105.481676
1.534343  0.000000  0.000000  0.000000  -45.781846  14.493894  6.452451  29.961943  9.979924  -9.425742  -4.994457  13.294904  59.859341  82.854797  105.948146
1.565657  0.000000  0.000000  0.000000  -45.893819  14.543029  6.581665  30.092649  10.113592  -9.430129  -4.999258  13.325431  59.853435  83.156099  106.380864
1.596970  0.000000  0.000000  0.000000  -45.966622  14.568312  6.650840  30.211069  10.209722  -9.420152  -5.088823  13.360676  59.849395  83.267373  106.738302
1.628283  0.000000  0.000000  0.000000  -45.994715  14.567516  6.674290  30.313967  10.246203  -9.398384  -5.253608  13.401378  59.848424  83.170767  106.978933
1.659596  0.000000  0.000000  0.000000  -45.973427  14.538078  6.658388  30.400288  10.207109  -9.360283  -5.485757  13.447477  59.851203  82.851190  107.069089
1.690909  0.000000  0.000000  0.000000  -45.902850  14.475606  6.605711  30.485912  10.090672  -9.297191  -5.786705  13.494512  59.855544  82.308752  107.018313
1.722222  0.000000  0.000000  0.000000  -45.784704  14.375081  6.520619  30.593161  9.898443  -9.201773  -6.161059  13.536519  59.858279  81.548753  106.850916
1.753535  0.000000  0.000000  0.000000  -45.620711  14.231486  6.412312  30.745184  9.629615  -9.070986  -6.613431  13.567534  59.856238  80.576500  106.591220
1.784848  0.000000  0.000000  0.000000  -45.412594  14.039802  6.283810  30.964063  9.286637  -8.896433  -7.148432  13.581593  59.846252  79.397298  106.263547
1.816162  0.000000  0.000000  0.000000  -45.162305  13.795770  6.138166  31.269412  8.872939  -8.670471  -7.769769  13.572753  59.825299  78.017839  105.892114
1.847475  0.000000  0.000000  0.000000  -44.874313  13.503445  5.983915  31.657208  8.399138  -8.397678  -8.471273  13.535311  59.791959  76.459934  105.499972
1.878788  0.000000  0.000000  0.000000  -44.554637  13.171991  5.824773  32.107761  7.884367  -8.082973  -9.240698  13.463714  59.745802  74.754701  105.109455
1.910101  0.000000  0.000000  0.000000  -44.209316  12.810651  5.681568  32.602953  7.338491  -7.745807  -10.065707  13.352410  59.686409  72.933397  104.742886
